<svg id="visual" viewBox="0 0 120 29.53" width="120" height="29.53" xmlns="http://www.w3.org/2000/svg" xmlns:xlink="http://www.w3.org/1999/xlink" version="1.1"><g><g transform="translate(57 7)"><path d="M4 -4.9C5.2 -3.9 6 -2.5 6.3 -1C6.7 0.4 6.6 2.1 5.8 3.3C5.1 4.6 3.7 5.5 2.2 5.9C0.8 6.3 -0.7 6.2 -2 5.6C-3.2 5 -4.2 4 -5 2.8C-5.7 1.6 -6.3 0.2 -6.1 -1.1C-5.9 -2.4 -4.9 -3.6 -3.8 -4.7C-2.7 -5.7 -1.3 -6.7 0.1 -6.8C1.5 -6.9 2.9 -6 4 -4.9Z" fill="#3e413e"></path></g><g transform="translate(20 10)"><path d="M3.1 -3.7C4 -2.9 4.7 -1.9 5 -0.8C5.3 0.3 5.1 1.6 4.5 2.5C3.9 3.5 2.8 4.1 1.7 4.5C0.5 4.8 -0.6 4.9 -1.7 4.6C-2.8 4.2 -3.7 3.5 -4.4 2.5C-5 1.5 -5.3 0.3 -5.1 -1C-5 -2.2 -4.4 -3.4 -3.5 -4.2C-2.5 -5 -1.3 -5.4 -0.1 -5.3C1.1 -5.1 2.2 -4.5 3.1 -3.7Z" fill="#3e413e"></path></g><g transform="translate(103 18)"><path d="M2.5 -2.9C3.2 -2.3 3.9 -1.5 4.2 -0.7C4.4 0.2 4.2 1.2 3.7 2.1C3.1 3 2.4 3.7 1.5 4C0.6 4.2 -0.4 4 -1.2 3.6C-2.1 3.2 -2.7 2.6 -3.2 1.8C-3.6 1.1 -3.8 0.2 -3.7 -0.7C-3.6 -1.6 -3.2 -2.5 -2.5 -3.1C-1.9 -3.7 -0.9 -4.1 -0.1 -4.1C0.8 -4 1.7 -3.5 2.5 -2.9Z" fill="#3e413e"></path></g><g transform="translate(3 8)"><path d="M2.9 -3.3C3.7 -2.7 4.5 -1.8 4.8 -0.7C5.1 0.3 5 1.6 4.4 2.5C3.8 3.4 2.7 3.9 1.6 4.1C0.6 4.4 -0.5 4.3 -1.4 4C-2.4 3.6 -3.2 3 -3.8 2.1C-4.4 1.2 -4.7 0.2 -4.7 -1C-4.7 -2.1 -4.2 -3.3 -3.4 -4C-2.5 -4.6 -1.3 -4.7 -0.1 -4.6C1 -4.4 2 -4 2.9 -3.3Z" fill="#3e413e"></path></g><g transform="translate(51 23)"><path d="M3.1 -3.8C3.9 -3 4.4 -1.9 4.5 -0.9C4.6 0.2 4.3 1.2 3.7 2.1C3.1 2.9 2.4 3.6 1.4 4.2C0.4 4.7 -0.8 5.1 -1.9 4.9C-3 4.6 -4 3.8 -4.5 2.7C-4.9 1.6 -4.9 0.4 -4.6 -0.7C-4.3 -1.8 -3.7 -2.7 -2.9 -3.5C-2.1 -4.2 -1 -4.8 0.1 -4.8C1.1 -4.9 2.3 -4.5 3.1 -3.8Z" fill="#3e413e"></path></g><g transform="translate(73 17)"><path d="M1.6 -1.9C2 -1.6 2.1 -1 2.3 -0.4C2.4 0.2 2.4 0.8 2.1 1.3C1.9 1.8 1.4 2.1 0.9 2.3C0.3 2.5 -0.3 2.4 -0.8 2.2C-1.3 2 -1.7 1.6 -2 1.1C-2.2 0.7 -2.3 0.1 -2.2 -0.4C-2.1 -0.9 -1.8 -1.4 -1.4 -1.7C-1 -2.1 -0.5 -2.4 0 -2.4C0.6 -2.4 1.2 -2.3 1.6 -1.9Z" fill="#3e413e"></path></g><g transform="translate(32 27)"><path d="M3.3 -3.9C4.2 -3.2 4.8 -2.1 4.9 -0.9C5.1 0.3 4.9 1.5 4.3 2.4C3.7 3.4 2.7 4.1 1.6 4.6C0.5 5 -0.7 5.2 -1.8 4.9C-2.9 4.6 -3.9 3.7 -4.4 2.6C-4.9 1.6 -4.8 0.4 -4.5 -0.7C-4.2 -1.7 -3.6 -2.6 -2.8 -3.3C-2 -4 -1 -4.6 0.1 -4.7C1.2 -4.9 2.5 -4.6 3.3 -3.9Z" fill="#3e413e"></path></g><g transform="translate(113 3)"><path d="M2.9 -3.5C3.8 -2.7 4.6 -1.8 4.9 -0.7C5.3 0.4 5.2 1.7 4.7 2.7C4.1 3.8 3 4.6 1.9 4.9C0.7 5.3 -0.5 5 -1.7 4.6C-2.9 4.2 -4 3.6 -4.4 2.6C-4.9 1.7 -4.8 0.4 -4.6 -0.8C-4.4 -2.1 -4.1 -3.3 -3.3 -4.1C-2.5 -4.9 -1.3 -5.2 -0.1 -5.1C1 -4.9 2 -4.3 2.9 -3.5Z" fill="#3e413e"></path></g><g transform="translate(2 25)"><path d="M2.4 -3C3.1 -2.4 3.4 -1.5 3.5 -0.7C3.6 0.2 3.5 1.1 3.1 1.8C2.7 2.6 2 3.2 1.2 3.6C0.4 3.9 -0.5 4 -1.4 3.8C-2.4 3.5 -3.2 3 -3.6 2.2C-4 1.4 -3.9 0.3 -3.7 -0.6C-3.5 -1.6 -3.2 -2.5 -2.6 -3.1C-1.9 -3.7 -1 -4 0 -4C0.9 -4 1.8 -3.6 2.4 -3Z" fill="#3e413e"></path></g><g transform="translate(94 3)"><path d="M1.5 -1.9C2 -1.5 2.2 -1 2.4 -0.4C2.5 0.2 2.4 0.8 2.2 1.3C2 1.9 1.5 2.3 0.9 2.5C0.4 2.7 -0.3 2.6 -0.9 2.4C-1.4 2.2 -2 1.8 -2.3 1.3C-2.6 0.8 -2.8 0.1 -2.6 -0.5C-2.5 -1.1 -2.2 -1.6 -1.7 -2C-1.2 -2.4 -0.6 -2.6 0 -2.6C0.6 -2.5 1.1 -2.3 1.5 -1.9Z" fill="#3e413e"></path></g><g transform="translate(37 3)"><path d="M3.3 -4.1C4.1 -3.2 4.4 -2 4.6 -0.8C4.8 0.4 4.9 1.7 4.5 2.7C4 3.7 3 4.6 1.9 4.9C0.7 5.2 -0.5 4.9 -1.6 4.5C-2.7 4 -3.7 3.4 -4.3 2.5C-4.9 1.5 -5.1 0.3 -4.8 -0.8C-4.5 -1.8 -3.8 -2.8 -2.9 -3.6C-2 -4.4 -1 -5.1 0.1 -5.2C1.2 -5.4 2.5 -4.9 3.3 -4.1Z" fill="#3e413e"></path></g><g transform="translate(84 28)"><path d="M3.1 -3.7C3.9 -3 4.5 -1.9 4.7 -0.8C4.9 0.3 4.7 1.4 4.1 2.4C3.6 3.3 2.7 4 1.6 4.3C0.6 4.6 -0.5 4.6 -1.5 4.2C-2.5 3.8 -3.4 3.1 -4.1 2.2C-4.8 1.3 -5.3 0.1 -5.1 -1C-5 -2.1 -4.3 -3.1 -3.3 -3.9C-2.4 -4.7 -1.2 -5.1 0 -5.1C1.1 -5 2.2 -4.5 3.1 -3.7Z" fill="#3e413e"></path></g><g transform="translate(119 27)"><path d="M1.5 -1.7C1.9 -1.4 2.3 -0.9 2.4 -0.4C2.5 0.1 2.3 0.6 2 1.1C1.7 1.6 1.3 1.9 0.7 2.2C0.2 2.4 -0.4 2.6 -0.9 2.4C-1.4 2.2 -1.7 1.7 -2 1.2C-2.3 0.7 -2.6 0.1 -2.5 -0.5C-2.4 -1 -2.1 -1.5 -1.6 -1.9C-1.2 -2.2 -0.6 -2.4 0 -2.3C0.5 -2.3 1 -2 1.5 -1.7Z" fill="#3e413e"></path></g></g></svg>